<svg width="24" height="25" viewBox="0 0 24 25" fill="none" xmlns="http://www.w3.org/2000/svg">
<path d="M0 12.5C0 5.87258 5.37258 0.5 12 0.5C18.6274 0.5 24 5.87258 24 12.5C24 19.1274 18.6274 24.5 12 24.5C5.37258 24.5 0 19.1274 0 12.5Z" fill="#E6F1FE"/>
<path opacity="0.4" d="M12.0002 19.1666C15.6821 19.1666 18.6668 16.1819 18.6668 12.5C18.6668 8.81808 15.6821 5.83331 12.0002 5.83331C8.31826 5.83331 5.3335 8.81808 5.3335 12.5C5.3335 16.1819 8.31826 19.1666 12.0002 19.1666Z" fill="#006FEE"/>
<path d="M12.0002 19.1666C15.6821 19.1666 18.6668 16.1819 18.6668 12.5C18.6668 8.81808 15.6821 5.83331 12.0002 5.83331C8.31826 5.83331 5.3335 8.81808 5.3335 12.5C5.3335 16.1819 8.31826 19.1666 12.0002 19.1666Z" stroke="#006FEE"/>
<path d="M12 9.83331V12.5L13.3333 13.8333" stroke="#006FEE" stroke-linecap="round" stroke-linejoin="round"/>
</svg>
