<svg width="13" height="12" viewBox="0 0 13 12" fill="none" xmlns="http://www.w3.org/2000/svg">
    <path d="M9 2.25C9 2.66421 8.6642 3 8.25 3C7.8358 3 7.5 2.66421 7.5 2.25C7.5 1.83579 7.8358 1.5 8.25 1.5C8.6642 1.5 9 1.83579 9 2.25Z" stroke="#F7B750"/>
    <path opacity="0.4" d="M6.93485 3.99903C6.7721 3.999 6.6092 3.99938 6.4999 4.00068L5.86535 4.97978C5.5165 5.5181 5.34205 5.78725 5.33525 6.06985C5.33222 6.1957 5.35299 6.321 5.39647 6.4392C5.49408 6.7045 5.746 6.90295 6.2499 7.2999L7.9999 4.63871C7.9438 4.59663 7.8831 4.53336 7.824 4.46274C7.6177 4.21628 7.5146 4.09305 7.414 4.04607C7.31345 3.99909 7.18725 3.99907 6.93485 3.99903Z" fill="#F7B750"/>
    <path d="M8 10.5014L7.66795 9.1934C7.55805 8.7605 7.33075 8.3652 7.01035 8.04965L6.25 7.3009M6.25 7.3009C5.7461 6.90395 5.49417 6.70545 5.39657 6.44015C5.35309 6.322 5.33232 6.1967 5.33535 6.0708C5.34215 5.7882 5.5166 5.51905 5.86545 4.98076L6.5 4.00166M6.25 7.3009L8 4.63969M3.5 5.5777C4 4.59281 4.76884 4.02213 6.5 4.00166M6.5 4.00166C6.6093 4.00037 6.7722 3.99998 6.9349 4C7.18735 4.00005 7.31355 4.00007 7.4141 4.04705C7.51465 4.09403 7.6178 4.21726 7.8241 4.46372C7.8832 4.53434 7.9439 4.59761 8 4.63969M8 4.63969C8.57735 5.07265 9.48135 5.247 10.5 4.10054" stroke="#F7B750" stroke-linecap="round" stroke-linejoin="round"/>
    <path d="M2.5 8.86515L2.83911 8.9458C3.70331 9.1514 4.60162 8.7582 5 8" stroke="#F7B750" stroke-linecap="round" stroke-linejoin="round"/>
</svg>
