<svg width="25" height="24" viewBox="0 0 25 24" fill="none" xmlns="http://www.w3.org/2000/svg">
<path d="M17.5 4.5C17.5 5.32843 16.8284 6 16 6C15.1716 6 14.5 5.32843 14.5 4.5C14.5 3.67157 15.1716 3 16 3C16.8284 3 17.5 3.67157 17.5 4.5Z" stroke="#F7B750" stroke-width="1.5"/>
<path opacity="0.4" d="M13.3697 7.99805C13.0442 7.99799 12.7184 7.99877 12.4998 8.00136L11.2307 9.95956C10.533 11.0362 10.1841 11.5745 10.1705 12.1397C10.1644 12.3914 10.206 12.642 10.2929 12.8784C10.4882 13.409 10.992 13.8059 11.9998 14.5998L15.4998 9.27743C15.3876 9.19326 15.2662 9.06672 15.148 8.92548C14.7354 8.43256 14.5292 8.18609 14.328 8.09214C14.1269 7.99818 13.8745 7.99813 13.3697 7.99805Z" fill="#F7B750"/>
<path d="M15.5 21.0028L14.8359 18.3868C14.6161 17.521 14.1615 16.7304 13.5207 16.0993L12 14.6018M12 14.6018C10.9922 13.8079 10.4883 13.4109 10.2931 12.8803C10.2062 12.644 10.1646 12.3934 10.1707 12.1416C10.1843 11.5764 10.5332 11.0381 11.2309 9.96151L12.5 8.00331M12 14.6018L15.5 9.27938M6.5 11.1554C7.5 9.18562 9.03767 8.04425 12.5 8.00331M12.5 8.00331C12.7186 8.00073 13.0444 7.99995 13.3698 8C13.8747 8.00009 14.1271 8.00013 14.3282 8.09409C14.5293 8.18805 14.7356 8.43451 15.1482 8.92744C15.2664 9.06867 15.3878 9.19521 15.5 9.27938M15.5 9.27938C16.6547 10.1453 18.4627 10.494 20.5 8.20108" stroke="#F7B750" stroke-width="1.5" stroke-linecap="round" stroke-linejoin="round"/>
<path d="M4.5 17.7303L5.17822 17.8916C6.90663 18.3028 8.70324 17.5164 9.5 16" stroke="#F7B750" stroke-width="1.5" stroke-linecap="round" stroke-linejoin="round"/>
</svg>
