<svg width="25" height="24" viewBox="0 0 25 24" fill="none" xmlns="http://www.w3.org/2000/svg">
<path opacity="0.4" d="M3.5 12C3.5 16.9706 7.52944 21 12.5 21C13.1874 21 13.8568 20.9229 14.5 20.777V3.22302C13.8568 3.07706 13.1874 3 12.5 3C7.52944 3 3.5 7.02944 3.5 12Z" fill="#F54180"/>
<path d="M14.5 3.09502C14.043 3.03241 13.5755 3 13.1 3C7.79807 3 3.5 7.02944 3.5 12C3.5 16.9706 7.79807 21 13.1 21C13.5755 21 14.043 20.9676 14.5 20.905" stroke="#F54180" stroke-width="1.5" stroke-linecap="round"/>
<path d="M21.5 12H11.5M21.5 12C21.5 11.2998 19.5057 9.99153 19 9.5M21.5 12C21.5 12.7002 19.5057 14.0085 19 14.5" stroke="#F54180" stroke-width="1.5" stroke-linecap="round" stroke-linejoin="round"/>
</svg>
