<svg width="24" height="25" viewBox="0 0 24 25" fill="none" xmlns="http://www.w3.org/2000/svg">
    <path d="M0 12.5C0 5.87258 5.37258 0.5 12 0.5C18.6274 0.5 24 5.87258 24 12.5C24 19.1274 18.6274 24.5 12 24.5C5.37258 24.5 0 19.1274 0 12.5Z" fill="#FEFCE8"/>
    <path opacity="0.4" d="M7.3335 17.1667V19.1667H16.6668V17.1667C16.6668 14.5893 14.5775 12.5 12.0002 12.5C9.42284 12.5 7.3335 14.5893 7.3335 17.1667Z" fill="#F5A524"/>
    <path d="M16.6668 5.83331V7.83331C16.6668 10.4106 14.5775 12.5 12.0002 12.5M12.0002 12.5C9.42284 12.5 7.3335 10.4106 7.3335 7.83331V5.83331M12.0002 12.5C14.5775 12.5 16.6668 14.5893 16.6668 17.1666V19.1666M12.0002 12.5C9.42284 12.5 7.3335 14.5893 7.3335 17.1666V19.1666" stroke="#F5A524"/>
    <path d="M6.6665 5.83331H17.3332M17.3332 19.1666H6.6665" stroke="#F5A524" stroke-linecap="round"/>
</svg>
