<svg width="78" height="90" viewBox="0 0 78 90" fill="none" xmlns="http://www.w3.org/2000/svg">
<g clip-path="url(#clip0_63_3944)">
<path d="M9.76294 44.8993L29.88 64.5763C33.3768 67.9967 35.1252 69.7068 37.2705 70.204C43.0384 71.5407 55.0529 62.8016 55.5574 56.9024C55.7453 54.7081 54.6565 52.5181 52.4794 48.1379L39.9541 22.9387" stroke="white" stroke-opacity="0.3" stroke-width="3" stroke-linecap="round"/>
<path d="M9.763 44.8993L8.67872 40.0414C7.78988 36.059 7.34545 34.0679 8.09282 32.2172C9.96392 27.5839 22.8719 17.836 28.4028 17.444C30.3938 17.3028 32.1512 18.339 35.6662 20.411L39.9542 22.9387" stroke="white" stroke-opacity="0.3" stroke-width="3" stroke-linecap="round"/>
<path d="M7.60645 46.4679L42.1107 21.3701" stroke="white" stroke-opacity="0.3" stroke-width="3" stroke-linecap="round"/>
<path d="M40.5445 55.4841C42.9266 53.7515 43.1018 49.9331 40.936 46.9556C38.7702 43.9781 35.0835 42.9689 32.7015 44.7016C30.3194 46.4342 30.1442 50.2526 32.31 53.2301C34.4758 56.2076 38.1625 57.2168 40.5445 55.4841Z" stroke="white" stroke-opacity="0.3" stroke-width="3" stroke-linecap="round"/>
</g>
<defs>
<clipPath id="clip0_63_3944">
<rect width="64" height="64" fill="white" transform="translate(-12 37.6468) rotate(-36.0316)"/>
</clipPath>
</defs>
</svg>
