<svg width="25" height="24" viewBox="0 0 25 24" fill="none" xmlns="http://www.w3.org/2000/svg">
<path d="M14.75 3.5C18.5212 3.5 20.4069 3.5 21.5784 4.7448C22.75 5.98959 22.75 7.99306 22.75 12C22.75 16.0069 22.75 18.0104 21.5784 19.2552C20.4069 20.5 18.5212 20.5 14.75 20.5H10.75C6.97876 20.5 5.09315 20.5 3.92157 19.2552C2.75 18.0104 2.75 16.0069 2.75 12C2.75 7.99306 2.75 5.98959 3.92157 4.7448C5.09315 3.5 6.97876 3.5 10.75 3.5H14.75Z" stroke="#338EF7" stroke-width="1.5" stroke-linejoin="round"/>
<path d="M5.75 15.4999C7.35865 13.3625 11.1039 13.2459 12.75 15.4999M10.999 10.25C10.999 11.2165 10.2155 12 9.24902 12C8.28253 12 7.49902 11.2165 7.49902 10.25C7.49902 9.2835 8.28253 8.5 9.24902 8.5C10.2155 8.5 10.999 9.2835 10.999 10.25Z" stroke="#338EF7" stroke-width="1.5" stroke-linecap="round"/>
<path d="M15.75 9.5H19.75" stroke="#338EF7" stroke-width="1.5" stroke-linecap="round"/>
<path d="M15.75 13.5H17.75" stroke="#338EF7" stroke-width="1.5" stroke-linecap="round"/>
</svg>
