<svg width="24" height="25" viewBox="0 0 24 25" fill="none" xmlns="http://www.w3.org/2000/svg">
    <path d="M0 12.5C0 5.87258 5.37258 0.5 12 0.5C18.6274 0.5 24 5.87258 24 12.5C24 19.1274 18.6274 24.5 12 24.5C5.37258 24.5 0 19.1274 0 12.5Z" fill="#F4F4F5"/>
    <path opacity="0.4" d="M8.38505 14.8211C7.44187 15.3827 4.96891 16.5294 6.47511 17.9644C7.21088 18.6653 8.03033 19.1667 9.06058 19.1667H14.9394C15.9697 19.1667 16.7891 18.6653 17.5249 17.9644C19.0311 16.5294 16.5581 15.3827 15.6149 14.8211C13.4032 13.5041 10.5968 13.5041 8.38505 14.8211Z" fill="#3F3F46"/>
    <path d="M8.38505 14.8211C7.44187 15.3827 4.96891 16.5294 6.47511 17.9644C7.21088 18.6653 8.03033 19.1667 9.06058 19.1667H14.9394C15.9697 19.1667 16.7891 18.6653 17.5249 17.9644C19.0311 16.5294 16.5581 15.3827 15.6149 14.8211C13.4032 13.5041 10.5968 13.5041 8.38505 14.8211Z" stroke="#3F3F46" stroke-linecap="round" stroke-linejoin="round"/>
    <path d="M15 8.83331C15 10.4902 13.6569 11.8333 12 11.8333C10.3431 11.8333 9 10.4902 9 8.83331C9 7.17646 10.3431 5.83331 12 5.83331C13.6569 5.83331 15 7.17646 15 8.83331Z" stroke="#3F3F46"/>
</svg>
