<svg width="25" height="24" viewBox="0 0 25 24" fill="none" xmlns="http://www.w3.org/2000/svg">
    <path d="M9.5 14.998L5.5 21.498M8.37727 16.5656L6.90433 15.6455C6.44859 15.3608 5.8499 15.5008 5.56561 15.9586L4.14806 18.2413C3.8688 18.691 3.99579 19.2827 4.43458 19.5763L6.00721 20.6285" stroke="#71717A" stroke-width="1.5" stroke-linecap="round" stroke-linejoin="round"/>
    <path d="M10.5 12.998L12.1708 9.65641C12.679 8.64006 13.7178 7.99805 14.8541 7.99805H15.3945C16.3975 7.99805 17.3342 8.49935 17.8906 9.33395L19 10.998L21 12.498M16.5 8.49805V13.867C16.5 13.954 16.5114 14.0406 16.5338 14.1247L18.5 21.498L14.0039 14.7538C13.6753 14.261 13.5 13.682 13.5 13.0897V8.49805" stroke="#71717A" stroke-width="1.5" stroke-linecap="round" stroke-linejoin="round"/>
    <path d="M15 16.9531L12.5 21.5L16 17.4994" stroke="#71717A" stroke-width="1.5" stroke-linecap="round" stroke-linejoin="round"/>
    <path d="M15 5.49805C15.8284 5.49805 16.5 4.82647 16.5 3.99805C16.5 3.16962 15.8284 2.49805 15 2.49805C14.1716 2.49805 13.5 3.16962 13.5 3.99805C13.5 4.82647 14.1716 5.49805 15 5.49805Z" stroke="#71717A" stroke-width="1.5" stroke-linecap="round" stroke-linejoin="round"/>
</svg>
