<svg width="25" height="24" viewBox="0 0 25 24" fill="none" xmlns="http://www.w3.org/2000/svg">
<path d="M12.75 22C18.2728 22 22.75 17.5228 22.75 12C22.75 6.47715 18.2728 2 12.75 2C7.22715 2 2.75 6.47715 2.75 12C2.75 17.5228 7.22715 22 12.75 22Z" stroke="#338EF7" stroke-width="1.5"/>
<path d="M7.75 8.37931H12.25M12.25 8.37931H15.25M12.25 8.37931V7M17.75 8.37931H15.25M15.25 8.37931C14.7225 10.2656 13.6179 12.0487 12.3571 13.6158M12.3571 13.6158C11.3131 14.9134 10.1621 16.0628 9.14286 17M12.3571 13.6158C11.7143 12.8621 10.8143 11.6426 10.5571 11.0909M12.3571 13.6158L14.2857 15.6207" stroke="#338EF7" stroke-width="1.5" stroke-linecap="round" stroke-linejoin="round"/>
</svg>
