<svg width="25" height="25" viewBox="0 0 25 25" fill="none" xmlns="http://www.w3.org/2000/svg">
<path d="M0.5 12.5C0.5 5.87258 5.87258 0.5 12.5 0.5C19.1274 0.5 24.5 5.87258 24.5 12.5C24.5 19.1274 19.1274 24.5 12.5 24.5C5.87258 24.5 0.5 19.1274 0.5 12.5Z" fill="#E8FAF0"/>
<path opacity="0.4" d="M18.4618 15.7236C18.0243 13.0911 16.6621 11.1308 15.478 9.97935C15.1334 9.6443 14.9611 9.47677 14.5805 9.32173C14.1999 9.16669 13.8728 9.16669 13.2185 9.16669H11.7815C11.1272 9.16669 10.8001 9.16669 10.4195 9.32173C10.0389 9.47677 9.86661 9.6443 9.52203 9.97935C8.33788 11.1308 6.97574 13.0911 6.53818 15.7236C6.21262 17.6823 8.01951 19.1667 10.0389 19.1667H14.9611C16.9805 19.1667 18.7874 17.6823 18.4618 15.7236Z" fill="#17C964"/>
<path d="M18.4618 15.7236C18.0243 13.0911 16.6621 11.1308 15.478 9.97935C15.1334 9.6443 14.9611 9.47677 14.5805 9.32173C14.1999 9.16669 13.8728 9.16669 13.2185 9.16669H11.7815C11.1272 9.16669 10.8001 9.16669 10.4195 9.32173C10.0389 9.47677 9.86661 9.6443 9.52203 9.97935C8.33788 11.1308 6.97574 13.0911 6.53818 15.7236C6.21262 17.6823 8.01951 19.1667 10.0389 19.1667H14.9611C16.9805 19.1667 18.7874 17.6823 18.4618 15.7236Z" stroke="#17C964" stroke-linecap="round"/>
<path d="M13.6794 13.1172C13.5352 12.5852 12.8016 12.105 11.921 12.4642C11.0404 12.8234 10.9005 13.979 12.2326 14.1018C12.8346 14.1573 13.2271 14.0374 13.5864 14.3766C13.9458 14.7156 14.0126 15.6587 13.0939 15.9128C12.1752 16.167 11.2656 15.7699 11.1665 15.206M12.4894 11.8333V12.3402M12.4894 15.991V16.5" stroke="#17C964" stroke-linecap="round" stroke-linejoin="round"/>
<path d="M9.33758 7.46189C9.20004 7.2617 9.00069 6.98997 9.4125 6.92801C9.83578 6.86432 10.2753 7.15407 10.7055 7.14812C11.0948 7.14273 11.293 6.97011 11.5058 6.72363C11.7298 6.46409 12.0766 5.83331 12.4998 5.83331C12.923 5.83331 13.2699 6.46409 13.4939 6.72363C13.7066 6.97011 13.9049 7.14273 14.2941 7.14812C14.7244 7.15407 15.1639 6.86432 15.5872 6.92801C15.999 6.98997 15.7996 7.2617 15.6621 7.46189L15.0402 8.36707C14.7742 8.75429 14.6412 8.94789 14.3628 9.05727C14.0844 9.16665 13.7247 9.16665 13.0053 9.16665H11.9944C11.275 9.16665 10.9152 9.16665 10.6369 9.05727C10.3585 8.94789 10.2255 8.75429 9.95947 8.36707L9.33758 7.46189Z" stroke="#17C964"/>
</svg>
