<svg width="25" height="24" viewBox="0 0 25 24" fill="none" xmlns="http://www.w3.org/2000/svg">
    <path opacity="0.4" d="M4.39124 3.89124C3 5.28249 3 7.52166 3 12C3 16.4783 3 18.7175 4.39124 20.1088C5.78249 21.5 8.02166 21.5 12.5 21.5C16.9783 21.5 19.2175 21.5 20.6088 20.1088C22 18.7175 22 16.4783 22 12C22 9.64284 22 7.90603 21.7971 6.58668C21.3618 7.70637 20.2736 8.5 19 8.5C17.3431 8.5 16 7.15685 16 5.5C16 4.22641 16.7936 3.13818 17.9133 2.70287C16.594 2.5 14.8572 2.5 12.5 2.5C8.02166 2.5 5.78249 2.5 4.39124 3.89124Z" fill="#006FEE"/>
    <path d="M7 17.5V14.5M12 17.5V8.5M17 17.5V13.5" stroke="#006FEE" stroke-width="1.5" stroke-linecap="round"/>
    <path d="M22 5.5C22 7.15685 20.6569 8.5 19 8.5C17.3431 8.5 16 7.15685 16 5.5C16 3.84315 17.3431 2.5 19 2.5C20.6569 2.5 22 3.84315 22 5.5Z" stroke="#006FEE" stroke-width="1.5"/>
    <path d="M21.9955 11C21.9955 11 22 11.3395 22 12C22 16.4784 22 18.7175 20.6088 20.1088C19.2175 21.5 16.9783 21.5 12.5 21.5C8.02166 21.5 5.78249 21.5 4.39124 20.1088C3 18.7175 3 16.4784 3 12C3 7.52169 3 5.28252 4.39124 3.89127C5.78249 2.50003 8.02166 2.50003 12.5 2.50003L13.5 2.5" stroke="#006FEE" stroke-width="1.5" stroke-linecap="round" stroke-linejoin="round"/>
</svg>
