<svg width="25" height="24" viewBox="0 0 25 24" fill="none" xmlns="http://www.w3.org/2000/svg">
    <path opacity="0.4" d="M20.5 17.0001V22.0001H12.5H4.5V17.0001C4.5 15.1145 4.5 14.1717 5.08579 13.5859C5.67157 13.0001 6.61438 13.0001 8.5 13.0001L12.5 22.0001L16.5 13.0001C18.3856 13.0001 19.3284 13.0001 19.9142 13.5859C20.5 14.1717 20.5 15.1145 20.5 17.0001Z" fill="#71717A"/>
    <path opacity="0.4" d="M16 6.50012V5.50012C16 3.56713 14.433 2.00012 12.5 2.00012C10.567 2.00012 9 3.56713 9 5.50012V6.50012C9 8.43312 10.567 10.0001 12.5 10.0001C14.433 10.0001 16 8.43312 16 6.50012Z" fill="#71717A"/>
    <path d="M20.5 22.0002V17.0002C20.5 15.1146 20.5 14.1718 19.9142 13.586C19.3284 13.0002 18.3856 13.0002 16.5 13.0002L12.5 22.0002L8.5 13.0002C6.61438 13.0002 5.67157 13.0002 5.08579 13.586C4.5 14.1718 4.5 15.1146 4.5 17.0002V22.0002" stroke="#71717A" stroke-width="1.5" stroke-linecap="round" stroke-linejoin="round"/>
    <path d="M12.5 15L12 19L12.5 20.5L13 19L12.5 15ZM12.5 15L11.5 13H13.5L12.5 15Z" stroke="#71717A" stroke-width="1.5" stroke-linecap="round" stroke-linejoin="round"/>
    <path d="M16 6.50012V5.50012C16 3.56713 14.433 2.00012 12.5 2.00012C10.567 2.00012 9 3.56713 9 5.50012V6.50012C9 8.43312 10.567 10.0001 12.5 10.0001C14.433 10.0001 16 8.43312 16 6.50012Z" stroke="#71717A" stroke-width="1.5" stroke-linecap="round" stroke-linejoin="round"/>
</svg>
