<svg width="25" height="25" viewBox="0 0 25 25" fill="none" xmlns="http://www.w3.org/2000/svg">
    <path d="M0.5 12.5C0.5 5.87258 5.87258 0.5 12.5 0.5C19.1274 0.5 24.5 5.87258 24.5 12.5C24.5 19.1274 19.1274 24.5 12.5 24.5C5.87258 24.5 0.5 19.1274 0.5 12.5Z" fill="#F2EAFA"/>
    <path d="M17.1668 9.16669L15.9878 18.0096C15.8994 18.672 15.3344 19.1667 14.6662 19.1667H10.3342C9.66592 19.1667 9.10087 18.672 9.01255 18.0096L7.8335 9.16669" stroke="#7828C8" stroke-linejoin="round"/>
    <path d="M17.1668 9.16665L16.6016 7.18838C16.5352 6.95604 16.4117 6.73956 16.209 6.60805C14.5432 5.52741 10.3743 5.62295 8.79429 6.61085C8.5894 6.73895 8.4651 6.95604 8.39872 7.18838L7.8335 9.16665" stroke="#7828C8" stroke-linejoin="round"/>
    <path d="M7.1665 9.16669H17.8332" stroke="#7828C8" stroke-linecap="round" stroke-linejoin="round"/>
    <path d="M12.4998 15.8333C13.2362 15.8333 13.8332 15.0871 13.8332 14.1667C13.8332 13.2462 13.2362 12.5 12.4998 12.5C11.7635 12.5 11.1665 13.2462 11.1665 14.1667C11.1665 15.0871 11.7635 15.8333 12.4998 15.8333Z" stroke="#7828C8" stroke-linejoin="round"/>
</svg>
