<svg width="29" height="29" viewBox="0 0 29 29" fill="none" xmlns="http://www.w3.org/2000/svg">
    <rect x="0.333008" y="0.5" width="28" height="28" rx="14" fill="#FEFCE8"/>
    <path opacity="0.4" d="M7.6665 12.1702C7.6665 10.4426 7.6665 9.57879 7.96452 8.87723C8.21345 8.29121 8.60634 7.78821 9.10142 7.4217C9.69412 6.98291 10.4895 6.8284 12.0804 6.51935C13.7346 6.19798 14.5618 6.0373 15.2054 6.29336C15.7402 6.50607 16.1907 6.90783 16.4823 7.43191C16.8332 8.06278 16.8332 8.96102 16.8332 10.7575V18.2424C16.8332 20.0389 16.8332 20.9372 16.4823 21.568C16.1907 22.0921 15.7402 22.4938 15.2054 22.7066C14.5618 22.9627 13.7346 22.8019 12.0804 22.4806C10.4895 22.1715 9.69412 22.017 9.10142 21.5782C8.60634 21.2117 8.21345 20.7087 7.96452 20.1227C7.6665 19.4212 7.6665 18.5573 7.6665 16.8297V12.1702Z" fill="#F5A524"/>
    <path d="M7.6665 12.1702C7.6665 10.4426 7.6665 9.57879 7.96452 8.87723C8.21345 8.29121 8.60634 7.78821 9.10142 7.4217C9.69412 6.98291 10.4895 6.8284 12.0804 6.51935C13.7346 6.19798 14.5618 6.0373 15.2054 6.29336C15.7402 6.50607 16.1907 6.90783 16.4823 7.43191C16.8332 8.06278 16.8332 8.96102 16.8332 10.7575V18.2424C16.8332 20.0389 16.8332 20.9372 16.4823 21.568C16.1907 22.0921 15.7402 22.4938 15.2054 22.7066C14.5618 22.9627 13.7346 22.8019 12.0804 22.4806C10.4895 22.1715 9.69412 22.017 9.10142 21.5782C8.60634 21.2117 8.21345 20.7087 7.96452 20.1227C7.6665 19.4212 7.6665 18.5573 7.6665 16.8297V12.1702Z" stroke="#F5A524" stroke-width="1.25"/>
    <path d="M16.833 20.9985C18.0391 21.1239 19.6663 21.5097 20.5309 20.407C20.9997 19.8093 20.9997 18.8988 20.9997 17.0778V11.9222C20.9997 10.1011 20.9997 9.19061 20.5309 8.59292C19.6663 7.49032 18.0391 7.87605 16.833 8.00145" stroke="#F5A524" stroke-width="1.25"/>
    <path d="M14.333 15.3334V13.6667" stroke="#F5A524" stroke-width="1.25" stroke-linecap="round" stroke-linejoin="round"/>
    <path d="M20.1665 20.9388H22.6665" stroke="#F5A524" stroke-width="1.25" stroke-linecap="round" stroke-linejoin="round"/>
    <path d="M5.99951 21.1667H8.49951" stroke="#F5A524" stroke-width="1.25" stroke-linecap="round" stroke-linejoin="round"/>
</svg>
