<svg width="16" height="16" viewBox="0 0 16 16" fill="none" xmlns="http://www.w3.org/2000/svg">
<path opacity="0.4" d="M2 8C2 11.3137 4.68629 14 8 14C8.45827 14 8.90453 13.9486 9.33333 13.8513V2.14868C8.90453 2.05137 8.45827 2 8 2C4.68629 2 2 4.68629 2 8Z" fill="white"/>
<path d="M9.33333 2.06335C9.02867 2.02161 8.717 2 8.4 2C4.86538 2 2 4.68629 2 8C2 11.3137 4.86538 14 8.4 14C8.717 14 9.02867 13.9784 9.33333 13.9367" stroke="white" stroke-linecap="round"/>
<path d="M9.00016 9.66671C8.66303 9.33904 7.3335 8.46684 7.3335 8.00004M7.3335 8.00004C7.3335 7.53324 8.66303 6.66106 9.00016 6.33337M7.3335 8.00004H14.0002" stroke="white" stroke-linecap="round" stroke-linejoin="round"/>
</svg>
