<svg width="25" height="25" viewBox="0 0 25 25" fill="none" xmlns="http://www.w3.org/2000/svg">
<path d="M0.5 12.5C0.5 5.87258 5.87258 0.5 12.5 0.5C19.1274 0.5 24.5 5.87258 24.5 12.5C24.5 19.1274 19.1274 24.5 12.5 24.5C5.87258 24.5 0.5 19.1274 0.5 12.5Z" fill="#FEE7EF"/>
<path opacity="0.4" d="M6.5 12.5C6.5 15.8137 9.18629 18.5 12.5 18.5C12.9583 18.5 13.4045 18.4486 13.8333 18.3513V6.64868C13.4045 6.55137 12.9583 6.5 12.5 6.5C9.18629 6.5 6.5 9.18629 6.5 12.5Z" fill="#F31260"/>
<path d="M13.8333 6.56335C13.5287 6.52161 13.217 6.5 12.9 6.5C9.36538 6.5 6.5 9.18629 6.5 12.5C6.5 15.8137 9.36538 18.5 12.9 18.5C13.217 18.5 13.5287 18.4784 13.8333 18.4367" stroke="#F31260" stroke-linecap="round"/>
<path d="M18.5002 12.5H11.8335M18.5002 12.5C18.5002 12.0332 17.1706 11.161 16.8335 10.8333M18.5002 12.5C18.5002 12.9668 17.1706 13.839 16.8335 14.1666" stroke="#F31260" stroke-linecap="round" stroke-linejoin="round"/>
</svg>
