<svg width="20" height="20" viewBox="0 0 20 20" fill="none" xmlns="http://www.w3.org/2000/svg">
    <path opacity="0.4" d="M17.9166 10.6307V10.2027C17.9166 8.76152 17.9166 7.60639 17.8513 6.66669H2.14849C2.08325 7.60639 2.08325 8.76152 2.08325 10.2027V10.6307C2.08325 14.2618 2.08325 16.0773 3.12669 17.2054C4.17012 18.3334 5.84949 18.3334 9.20825 18.3334H10.7916C14.1503 18.3334 15.8298 18.3334 16.8732 17.2054C17.9166 16.0773 17.9166 14.2618 17.9166 10.6307Z" fill="#27272A"/>
    <path d="M15 1.66669V3.33335M5 1.66669V3.33335" stroke="#27272A" stroke-width="1.25" stroke-linecap="round" stroke-linejoin="round"/>
    <path d="M9.20825 18.3333C5.84949 18.3333 4.17012 18.3333 3.12669 17.2053C2.08325 16.0773 2.08325 14.2617 2.08325 10.6307V10.2027C2.08325 6.57162 2.08325 4.75607 3.12669 3.62803C4.17012 2.5 5.84949 2.5 9.20825 2.5H10.7916C14.1503 2.5 15.8298 2.5 16.8732 3.62803C17.8555 4.69002 17.913 6.36137 17.9163 9.58333V10.8333" stroke="#27272A" stroke-width="1.25" stroke-linecap="round" stroke-linejoin="round"/>
    <path d="M10.8333 14.5833H17.4999M10.8333 14.5833C10.8333 15.1668 12.4952 16.2571 12.9166 16.6667M10.8333 14.5833C10.8333 13.9998 12.4952 12.9096 12.9166 12.5" stroke="#27272A" stroke-width="1.25" stroke-linecap="round" stroke-linejoin="round"/>
    <path d="M2.5 6.66669H17.5" stroke="#27272A" stroke-width="1.25" stroke-linecap="round" stroke-linejoin="round"/>
</svg>
