<svg width="25" height="24" viewBox="0 0 25 24" fill="none" xmlns="http://www.w3.org/2000/svg">
<rect x="0.75" width="24" height="24" rx="12" fill="#FEFCE8"/>
<path opacity="0.4" d="M13.146 6.15174C11.249 6.69579 10.0158 8.56816 10.0862 10.5834C10.1009 11.0019 10.1082 11.2112 10.287 11.3037C10.4659 11.3963 10.6515 11.2651 11.0228 11.0027L11.8504 10.4179C11.9748 10.33 12.1224 10.2877 12.271 10.2972L14.2152 10.4221L15.8405 9.27361C15.9648 9.18577 16.1124 9.14345 16.2611 9.153L17.2753 9.21815C17.7105 9.24611 17.9281 9.26009 18.0361 9.09255C18.1442 8.92502 18.0563 8.74389 17.8806 8.38161C17.0071 6.57993 15.0536 5.60471 13.146 6.15174Z" fill="#F5A524"/>
<path d="M6.08337 14.5001C6.08337 14.5001 7.28027 14 9.41671 14C12.75 14 15.4167 16 19.4167 16" stroke="#F5A524" stroke-linecap="round" stroke-linejoin="round"/>
<path d="M6.08337 18H19.4167" stroke="#F5A524" stroke-linecap="round" stroke-linejoin="round"/>
<path d="M13.146 6.15174C11.249 6.69579 10.0158 8.56816 10.0862 10.5834C10.1009 11.0019 10.1082 11.2112 10.287 11.3037C10.4659 11.3963 10.6515 11.2651 11.0228 11.0027L11.8504 10.4179C11.9748 10.33 12.1224 10.2877 12.271 10.2972L14.2152 10.4221L15.8405 9.27361C15.9648 9.18577 16.1124 9.14345 16.2611 9.153L17.2753 9.21815C17.7105 9.24611 17.9281 9.26009 18.0361 9.09255C18.1442 8.92502 18.0563 8.74389 17.8806 8.38161C17.0071 6.57993 15.0536 5.60471 13.146 6.15174Z" stroke="#F5A524" stroke-linecap="round" stroke-linejoin="round"/>
<path d="M14.4167 10.3333L15.75 15.3333M12.9405 5.99992L12.75 5.33325" stroke="#F5A524" stroke-linecap="round" stroke-linejoin="round"/>
</svg>
