<svg width="25" height="24" viewBox="0 0 25 24" fill="none" xmlns="http://www.w3.org/2000/svg">
<rect x="0.75" width="24" height="24" rx="12" fill="#E8FAF0"/>
<path opacity="0.4" fill-rule="evenodd" clip-rule="evenodd" d="M19.4166 13.3431V14.674C19.4166 16.5561 19.4166 17.4972 18.8308 18.0819C18.245 18.6666 17.3022 18.6666 15.4166 18.6666H11.4166C8.90249 18.6666 7.64541 18.6666 6.86436 17.887C6.08331 17.1074 6.08331 15.8526 6.08331 13.3431L6.08335 11.7613C6.08375 10.6735 6.08395 10.1297 6.47444 9.74008C6.86493 9.35045 7.43269 9.35045 8.56821 9.35045H16.75C17.1372 9.29663 18.0956 9.33822 18.8308 9.93515C19.4166 10.5199 19.4166 11.4609 19.4166 13.3431ZM16.4166 14.3333C15.8644 14.3333 15.4166 13.8855 15.4166 13.3333C15.4166 12.781 15.8644 12.3333 16.4166 12.3333C16.9689 12.3333 17.4166 12.781 17.4166 13.3333C17.4166 13.8855 16.9689 14.3333 16.4166 14.3333Z" fill="#12A150"/>
<path opacity="0.4" d="M14.0833 5.33325C15.9243 5.33325 17.4167 6.82564 17.4167 8.66659C17.4167 8.8949 17.3937 9.11785 17.35 9.33325H10.8167C10.773 9.11785 10.75 8.8949 10.75 8.66659C10.75 6.82564 12.2424 5.33325 14.0833 5.33325Z" fill="#12A150"/>
<path d="M15.4167 13.3333C15.4167 13.8855 15.8644 14.3333 16.4167 14.3333C16.969 14.3333 17.4167 13.8855 17.4167 13.3333C17.4167 12.781 16.969 12.3333 16.4167 12.3333C15.8644 12.3333 15.4167 12.781 15.4167 13.3333Z" stroke="#12A150"/>
<path d="M17.35 9.33325C17.3937 9.11785 17.4167 8.8949 17.4167 8.66659C17.4167 6.82564 15.9243 5.33325 14.0833 5.33325C12.2424 5.33325 10.75 6.82564 10.75 8.66659C10.75 8.8949 10.773 9.11785 10.8167 9.33325" stroke="#12A150"/>
<path d="M9.41665 9.32891H15.4166C17.3022 9.32891 18.245 9.32891 18.8308 9.91497C19.4166 10.501 19.4166 11.4443 19.4166 13.3308V14.6648C19.4166 16.5513 19.4166 17.4946 18.8308 18.0807C18.245 18.6667 17.3022 18.6667 15.4166 18.6667H11.4166C8.90249 18.6667 7.64541 18.6667 6.86436 17.8853C6.08331 17.1039 6.08331 15.8462 6.08331 13.3308V11.9969C6.08331 9.48149 6.08331 8.2238 6.86436 7.44237C7.49309 6.81335 8.43027 6.69067 10.0833 6.66675H11.4166" stroke="#12A150" stroke-linecap="round"/>
</svg>
