<svg width="25" height="24" viewBox="0 0 25 24" fill="none" xmlns="http://www.w3.org/2000/svg">
<rect x="0.25" width="24" height="24" rx="12" fill="#E6F1FE"/>
<path opacity="0.4" d="M7.54921 11.591C7.31434 11.5186 7.10793 11.4334 6.92829 11.3333H6.55855L6.42772 12.7815C6.19321 15.3774 6.07595 16.6753 6.82823 17.5043C7.58051 18.3333 8.87567 18.3333 11.466 18.3333H13.034C15.6243 18.3333 16.9195 18.3333 17.6718 17.5043C18.4241 16.6753 18.3068 15.3774 18.0723 12.7815L17.9415 11.3333H17.5717C17.3921 11.4334 17.1857 11.5186 16.9508 11.591L14.17 12.4486C13.9513 12.5161 13.7577 12.5757 13.5833 12.6277V12.6666C13.5833 13.403 12.9864 13.9999 12.25 13.9999C11.5136 13.9999 10.9167 13.403 10.9167 12.6666V12.6277C10.7423 12.5757 10.5487 12.5161 10.33 12.4486L7.54921 11.591Z" fill="#006FEE"/>
<path d="M10.9166 12.2221C10.9166 12.0155 10.9166 11.9121 10.9394 11.8274C11.001 11.5973 11.1807 11.4176 11.4108 11.356C11.4955 11.3333 11.5988 11.3333 11.8055 11.3333H12.6944C12.9011 11.3333 13.0044 11.3333 13.0892 11.356C13.3192 11.4176 13.499 11.5973 13.5606 11.8274C13.5833 11.9121 13.5833 12.0155 13.5833 12.2221V12.6666C13.5833 13.403 12.9864 13.9999 12.25 13.9999C11.5136 13.9999 10.9166 13.403 10.9166 12.6666V12.2221Z" stroke="#006FEE" stroke-linecap="round" stroke-linejoin="round"/>
<path d="M13.451 12.6667C13.6588 12.6063 13.8944 12.5337 14.17 12.4487L16.9508 11.5911C17.9405 11.2859 18.4249 10.754 18.5302 9.83318C18.5774 9.42132 18.601 9.21539 18.5678 9.04681C18.4732 8.56576 18.0692 8.17569 17.5308 8.04559C17.3422 8 17.1053 8 16.6316 8H7.86834C7.39462 8 7.15777 8 6.9691 8.04559C6.4307 8.17569 6.02669 8.56576 5.93211 9.04681C5.89896 9.21539 5.92253 9.42132 5.96966 9.83318C6.07505 10.754 6.55945 11.2859 7.54917 11.5911L10.3299 12.4487C10.6055 12.5337 10.8412 12.6063 11.0489 12.6667" stroke="#006FEE"/>
<path d="M6.55855 11.3333L6.42772 12.7815C6.19321 15.3774 6.07595 16.6753 6.82823 17.5043C7.58051 18.3333 8.87567 18.3333 11.466 18.3333H13.034C15.6243 18.3333 16.9195 18.3333 17.6718 17.5043C18.4241 16.6753 18.3068 15.3774 18.0723 12.7815L17.9415 11.3333" stroke="#006FEE" stroke-linecap="round" stroke-linejoin="round"/>
<path d="M14.5833 7.66675L14.5318 7.49014C14.2751 6.61011 14.1468 6.1701 13.8412 5.91843C13.5357 5.66675 13.1299 5.66675 12.3182 5.66675H12.1818C11.37 5.66675 10.9642 5.66675 10.6587 5.91843C10.3531 6.1701 10.2248 6.61011 9.96814 7.49014L9.91663 7.66675" stroke="#006FEE"/>
</svg>
