<svg width="16" height="16" viewBox="0 0 16 16" fill="none" xmlns="http://www.w3.org/2000/svg">
<circle cx="8.00293" cy="8" r="8" fill="#A1A1AA"/>
<path fill-rule="evenodd" clip-rule="evenodd" d="M9.30762 5.24219C9.43262 5.02344 9.50293 4.76953 9.50293 4.5C9.50293 3.67188 8.83105 3 8.00293 3C7.1748 3 6.50293 3.67188 6.50293 4.5C6.50293 5.32812 7.1748 6 8.00293 6C8.56152 6 9.0498 5.69531 9.30762 5.24219ZM7.00293 7H7.50293H8.50293C9.05566 7 9.50293 7.44727 9.50293 8V9V13C9.50293 13.5527 9.05566 14 8.50293 14C7.9502 14 7.50293 13.5527 7.50293 13V9.75C7.50293 9.33594 7.16699 9 6.75293 9C6.33887 9 6.00293 8.66406 6.00293 8.25V8C6.00293 7.64844 6.18457 7.33789 6.45801 7.16016C6.61426 7.05859 6.80176 7 7.00293 7Z" fill="#F4F4F5"/>
</svg>
